<?xml version="1.0" encoding="UTF-8" standalone="no"?>
<!-- Created with Inkscape (http://www.inkscape.org/) -->

<svg
   xmlns:dc="http://purl.org/dc/elements/1.1/"
   xmlns:cc="http://creativecommons.org/ns#"
   xmlns:rdf="http://www.w3.org/1999/02/22-rdf-syntax-ns#"
   xmlns:svg="http://www.w3.org/2000/svg"
   xmlns="http://www.w3.org/2000/svg"
   xmlns:sodipodi="http://sodipodi.sourceforge.net/DTD/sodipodi-0.dtd"
   xmlns:inkscape="http://www.inkscape.org/namespaces/inkscape"
   width="30"
   height="380"
   viewBox="0 0 30 380.00001"
   id="svg2"
   version="1.1"
   inkscape:version="0.91 r13725"
   sodipodi:docname="Quant.svg">
  <defs
     id="defs4" />
  <sodipodi:namedview
     id="base"
     pagecolor="#ffffff"
     bordercolor="#666666"
     borderopacity="1.0"
     inkscape:pageopacity="0.0"
     inkscape:pageshadow="2"
     inkscape:zoom="1.979899"
     inkscape:cx="-243.2983"
     inkscape:cy="177.14286"
     inkscape:document-units="px"
     inkscape:current-layer="layer1"
     showgrid="false"
     units="px"
     inkscape:window-width="1920"
     inkscape:window-height="1058"
     inkscape:window-x="0"
     inkscape:window-y="0"
     inkscape:window-maximized="1" />
  <metadata
     id="metadata7">
    <rdf:RDF>
      <cc:Work
         rdf:about="">
        <dc:format>image/svg+xml</dc:format>
        <dc:type
           rdf:resource="http://purl.org/dc/dcmitype/StillImage" />
        <dc:title></dc:title>
      </cc:Work>
    </rdf:RDF>
  </metadata>
  <g
     inkscape:groupmode="layer"
     id="layer2"
     inkscape:label="bg">
    <rect
       style="opacity:1;fill:#e6e6e6;fill-opacity:1;fill-rule:nonzero;stroke:#0000ff;stroke-width:0.35433072;stroke-miterlimit:4;stroke-dasharray:none;stroke-opacity:1"
       id="rect4300"
       width="30.809652"
       height="380.32245"
       x="0"
       y="0.18264274" />
  </g>
  <g
     inkscape:label="Layer 1"
     inkscape:groupmode="layer"
     id="layer1"
     transform="translate(0,-672.36216)">
    <g
       style="font-style:normal;font-variant:normal;font-weight:normal;font-stretch:normal;font-size:10px;line-height:135.00000238%;font-family:'Hiragino Sans';-inkscape-font-specification:'Hiragino Sans, Normal';text-align:start;letter-spacing:0px;word-spacing:0px;writing-mode:lr-tb;text-anchor:start;fill:#000000;fill-opacity:1;stroke:none;stroke-width:1px;stroke-linecap:butt;stroke-linejoin:miter;stroke-opacity:1"
       id="text4136"
       transform="translate(2.5e-7,335.87572)">
      <path
         d="m 7.8322655,692.55306 c -0.02,0.23 -0.11,0.61 -0.22,0.99 l -1.29,4.29 c -0.05,0.15 -0.21,0.83 -0.28,1.2 -0.1,-0.52 -0.21,-1.04 -0.26,-1.23 l -1.11,-4.2 c -0.11,-0.41 -0.17,-0.74 -0.19,-1.05 l -1.18,0 c 0.15,0.33 0.24,0.59 0.4,1.15 l 1.59,5.55 c 0.23,0.8 0.23,0.8 0.27,1.01 l 0.93,0 c 0.04,-0.25 0.1,-0.47 0.25,-0.98 l 1.24,-4.15 c 0.08,-0.27 0.19,-0.69 0.3,-1.19 0.08,0.42 0.17,0.79 0.29,1.19 l 1.25,4.15 c 0.11,0.34 0.2200005,0.78 0.2500005,0.98 l 0.94,0 c 0.04,-0.21 0.04,-0.21 0.26,-1.01 l 1.59,-5.55 c 0.16,-0.57 0.24,-0.8 0.39,-1.15 l -1.17,0 c -0.01,0.28 -0.08,0.66 -0.18,1.05 l -1.11,4.19 c -0.03,0.1 -0.12,0.51 -0.26,1.24 -0.17,-0.75 -0.25,-1.09 -0.3,-1.26 l -1.2800005,-4.23 c -0.11,-0.38 -0.19,-0.72 -0.23,-0.99 l -0.89,0 z"
         style="font-style:normal;font-variant:normal;font-weight:normal;font-stretch:normal;font-size:10px;line-height:135.00000238%;font-family:'Hiragino Sans';-inkscape-font-specification:'Hiragino Sans, Normal';text-align:start;writing-mode:lr-tb;text-anchor:start"
         id="path4261"
         inkscape:connector-curvature="0" />
      <path
         d="m 17.167109,693.39306 1.46,0 c 0.61,0 0.93,0.02 1.27,0.07 l 0,-0.98 c -0.33,0.05 -0.63,0.07 -1.27,0.07 l -3.91,0 c -0.55,0 -0.81,-0.02 -1.2,-0.07 l 0,0.98 c 0.33,-0.05 0.68,-0.07 1.21,-0.07 l 1.5,0 0,5.69 c 0,0.5 -0.03,0.88 -0.08,1.18 l 1.1,0 c -0.06,-0.37 -0.08,-0.68 -0.08,-1.18 l 0,-5.69 z"
         style="font-style:normal;font-variant:normal;font-weight:normal;font-stretch:normal;font-size:10px;line-height:135.00000238%;font-family:'Hiragino Sans';-inkscape-font-specification:'Hiragino Sans, Normal';text-align:start;writing-mode:lr-tb;text-anchor:start"
         id="path4263"
         inkscape:connector-curvature="0" />
      <path
         d="m 21.927734,692.55306 c -0.59,0 -0.85,-0.01 -1.14,-0.02 0.06,0.37 0.08,0.67 0.08,1.11 l 0,5.38 c 0,0.6 -0.02,0.85 -0.09,1.26 0.37,-0.02 0.65,-0.02 1.15,-0.02 l 2.31,0 c 1.57,0 2.46,-0.77 2.46,-2.13 0,-0.64 -0.21,-1.15 -0.61,-1.51 -0.27,-0.24 -0.5,-0.34 -0.98,-0.43 0.4,-0.13 0.57,-0.22 0.78,-0.41 0.36,-0.33 0.54,-0.77 0.54,-1.35 0,-1.21 -0.83,-1.88 -2.3,-1.88 l -2.2,0 z m -0.13,3.26 0,-2.45 2.27,0 c 0.93,0 1.41,0.4 1.41,1.17 0,0.82 -0.51,1.28 -1.4,1.28 l -2.28,0 z m 0,0.8 2.31,0 c 1.07,0 1.62,0.49 1.62,1.43 0,0.92 -0.56,1.41 -1.59,1.41 l -2.34,0 0,-2.84 z"
         style="font-style:normal;font-variant:normal;font-weight:normal;font-stretch:normal;font-size:10px;line-height:135.00000238%;font-family:'Hiragino Sans';-inkscape-font-specification:'Hiragino Sans, Normal';text-align:start;writing-mode:lr-tb;text-anchor:start"
         id="path4265"
         inkscape:connector-curvature="0" />
    </g>
    <g
       style="font-style:normal;font-variant:normal;font-weight:normal;font-stretch:normal;font-size:6.00000048px;line-height:135.00000238%;font-family:'Hiragino Sans';-inkscape-font-specification:'Hiragino Sans, Normal';text-align:start;letter-spacing:0px;word-spacing:0px;writing-mode:lr-tb;text-anchor:start;fill:#000000;fill-opacity:1;stroke:none;stroke-width:1px;stroke-linecap:butt;stroke-linejoin:miter;stroke-opacity:1"
       id="text4148"
       transform="translate(-2e-7,-332.34019)">
      <path
         d="m 7.8436867,1029.7496 c -0.174,-0.132 -0.24,-0.192 -0.528,-0.48 0.258,-0.282 0.36,-0.426 0.468,-0.696 0.144,-0.342 0.21,-0.714 0.21,-1.14 0,-1.458 -0.828,-2.394 -2.1120001,-2.394 -1.2960001,0 -2.1300002,0.948 -2.1300002,2.412 0,1.458 0.8280001,2.394 2.1180002,2.394 0.42,0 0.726,-0.084 1.0680001,-0.282 0.36,0.354 0.426,0.426 0.54,0.576 l 0.366,-0.39 z m -1.7760001,-0.99 c 0.186,0.138 0.294,0.234 0.486,0.426 -0.21,0.114 -0.408,0.162 -0.666,0.162 -0.9420001,0 -1.5540001,-0.75 -1.5540001,-1.908 0,-1.158 0.606,-1.902 1.5480001,-1.902 0.402,0 0.75,0.138 1.0140001,0.402 0.336,0.336 0.51,0.852 0.51,1.5 0,0.366 -0.06,0.696 -0.18,0.99 -0.072,0.18 -0.138,0.276 -0.306,0.462 -0.2580001,-0.258 -0.3840001,-0.384 -0.4800001,-0.498 l -0.372,0.366 z"
         id="path4268"
         inkscape:connector-curvature="0" />
      <path
         d="m 11.93325,1025.1296 c 0.036,0.21 0.048,0.402 0.048,0.726 l 0,2.172 c 0,0.852 -0.462,1.32 -1.308,1.32 -0.8460005,0 -1.3140006,-0.474 -1.3140006,-1.32 l 0,-2.172 c 0,-0.336 0.012,-0.534 0.048,-0.726 l -0.66,0 c 0.036,0.204 0.048,0.402 0.048,0.726 l 0,2.19 c 0,1.158 0.6660001,1.8 1.8660006,1.8 0.6,0 1.098,-0.174 1.41,-0.492 0.312,-0.318 0.474,-0.762 0.474,-1.308 l 0,-2.202 c 0,-0.318 0.012,-0.504 0.048,-0.714 l -0.66,0 z"
         id="path4270"
         inkscape:connector-curvature="0" />
      <path
         d="m 17.549906,1029.7556 c -0.09,-0.156 -0.168,-0.33 -0.318,-0.696 l -1.344,-3.36 c -0.144,-0.36 -0.174,-0.45 -0.204,-0.57 l -0.732,0 c -0.03,0.144 -0.078,0.282 -0.192,0.57 l -1.338,3.36 c -0.144,0.36 -0.21,0.504 -0.318,0.696 l 0.726,0 c 0.042,-0.216 0.09,-0.372 0.186,-0.618 l 0.288,-0.744 2.046,0 0.294,0.744 c 0.066,0.18 0.138,0.414 0.18,0.618 l 0.726,0 z m -1.368,-1.854 -1.71,0 0.726,-1.92 c 0.012,-0.03 0.03,-0.09 0.06,-0.174 0.012,-0.042 0.036,-0.114 0.066,-0.198 0.108,0.318 0.108,0.318 0.126,0.372 l 0.732,1.92 z"
         id="path4272"
         inkscape:connector-curvature="0" />
      <path
         d="m 18.069657,1025.1296 c 0.036,0.222 0.048,0.414 0.048,0.702 l 0,3.156 c 0,0.342 -0.012,0.582 -0.048,0.768 l 0.648,0 c -0.036,-0.204 -0.048,-0.426 -0.048,-0.768 l 0,-2.118 c 0,-0.252 -0.012,-0.672 -0.036,-1.038 0.102,0.198 0.288,0.516 0.354,0.618 l 1.812,2.736 c 0.174,0.264 0.246,0.378 0.336,0.57 l 0.738,0 c -0.036,-0.204 -0.048,-0.39 -0.048,-0.702 l 0,-3.192 c 0,-0.324 0.012,-0.51 0.048,-0.732 l -0.648,0 c 0.036,0.216 0.048,0.42 0.048,0.726 l 0,2.172 c 0,0.192 0.012,0.558 0.036,1.038 -0.132,-0.24 -0.312,-0.534 -0.414,-0.684 l -1.788,-2.682 c -0.18,-0.276 -0.27,-0.438 -0.318,-0.57 l -0.72,0 z"
         id="path4274"
         inkscape:connector-curvature="0" />
      <path
         d="m 24.610313,1025.6336 0.876001,0 c 0.366,0 0.558,0.012 0.762,0.042 l 0,-0.588 c -0.198,0.03 -0.378,0.042 -0.762,0.042 l -2.346001,0 c -0.33,0 -0.486,-0.012 -0.72,-0.042 l 0,0.588 c 0.198,-0.03 0.408,-0.042 0.726,-0.042 l 0.9,0 0,3.414 c 0,0.3 -0.018,0.528 -0.048,0.708 l 0.66,0 c -0.036,-0.222 -0.048,-0.408 -0.048,-0.708 l 0,-3.414 z"
         id="path4276"
         inkscape:connector-curvature="0" />
    </g>
    <g
       id="g4164"
       transform="translate(0,21.984108)">
      <g
         style="font-style:normal;font-variant:normal;font-weight:normal;font-stretch:normal;font-size:10px;line-height:135.00000238%;font-family:'Charcoal CY';-inkscape-font-specification:'Charcoal CY, Normal';text-align:start;letter-spacing:0px;word-spacing:0px;writing-mode:lr-tb;text-anchor:start;fill:#000000;fill-opacity:1;stroke:none;stroke-width:1px;stroke-linecap:butt;stroke-linejoin:miter;stroke-opacity:1"
         id="text4152">
        <path
           d="m 3.503418,743.54156 6.1669922,0 0,0.83008 -2.5878907,0 0,6.45996 -0.9912109,0 0,-6.45996 -2.5878906,0 0,-0.83008 z"
           style=""
           id="path4279" />
        <path
           d="m 14.104004,747.41364 q 0.317383,0.10742 0.615234,0.45898 0.302735,0.35156 0.605469,0.9668 l 1.000977,1.99218 -1.059571,0 -0.932617,-1.87011 q -0.361328,-0.73243 -0.703125,-0.97168 -0.336914,-0.23926 -0.922851,-0.23926 l -1.074219,0 0,3.08105 -0.986328,0 0,-7.29004 2.226562,0 q 1.25,0 1.865235,0.52247 0.615234,0.52246 0.615234,1.57714 0,0.68848 -0.322266,1.14258 -0.317383,0.4541 -0.927734,0.62989 z m -2.470703,-3.06153 0,2.58789 1.240234,0 q 0.712891,0 1.074219,-0.32715 0.366211,-0.33203 0.366211,-0.97168 0,-0.63964 -0.366211,-0.96191 -0.361328,-0.32715 -1.074219,-0.32715 l -1.240234,0 z"
           style=""
           id="path4281" />
        <path
           d="m 17.600098,743.54156 0.986328,0 0,7.29004 -0.986328,0 0,-7.29004 z"
           style=""
           id="path4283" />
        <path
           d="m 25.52002,749.79156 0,-1.958 -1.611329,0 0,-0.81055 2.587891,0 0,3.12988 q -0.571289,0.40528 -1.259766,0.61524 -0.688476,0.20508 -1.469726,0.20508 -1.708985,0 -2.675781,-0.9961 -0.961914,-1.00097 -0.961914,-2.7832 0,-1.78711 0.961914,-2.7832 0.966796,-1.00098 2.675781,-1.00098 0.71289,0 1.352539,0.17578 0.644531,0.17578 1.186523,0.51758 l 0,1.0498 q -0.546875,-0.46386 -1.162109,-0.69824 -0.615234,-0.23437 -1.293945,-0.23437 -1.337891,0 -2.011719,0.74707 -0.668945,0.74707 -0.668945,2.22656 0,1.47461 0.668945,2.22168 0.673828,0.74707 2.011719,0.74707 0.522461,0 0.932617,-0.0879 0.410156,-0.0928 0.737305,-0.28321 z"
           style=""
           id="path4285" />
      </g>
      <g
         style="font-style:normal;font-variant:normal;font-weight:normal;font-stretch:normal;font-size:10px;line-height:135.00000238%;font-family:'Charcoal CY';-inkscape-font-specification:'Charcoal CY, Normal';text-align:start;letter-spacing:0px;word-spacing:0px;writing-mode:lr-tb;text-anchor:start;fill:#000000;fill-opacity:1;stroke:none;stroke-width:1px;stroke-linecap:butt;stroke-linejoin:miter;stroke-opacity:1"
         id="text4156">
        <path
           d="m 10.766602,836.73303 0.986328,0 0,7.29004 -0.986328,0 0,-7.29004 z"
           style=""
           id="path4288" />
        <path
           d="m 13.71582,836.73303 1.328125,0 3.232422,6.09864 0,-6.09864 0.957031,0 0,7.29004 -1.328125,0 -3.232421,-6.09863 0,6.09863 -0.957032,0 0,-7.29004 z"
           style=""
           id="path4290" />
      </g>
      <g
         style="font-style:normal;font-variant:normal;font-weight:normal;font-stretch:normal;font-size:10px;line-height:135.00000238%;font-family:'Charcoal CY';-inkscape-font-specification:'Charcoal CY, Normal';text-align:start;letter-spacing:0px;word-spacing:0px;writing-mode:lr-tb;text-anchor:start;fill:#000000;fill-opacity:1;stroke:none;stroke-width:1px;stroke-linecap:butt;stroke-linejoin:miter;stroke-opacity:1"
         id="text4160">
        <path
           d="m 7.9931641,930.58368 q -1.0742188,0 -1.7089844,0.80078 -0.6298828,0.80078 -0.6298828,2.18262 0,1.37695 0.6298828,2.17773 0.6347656,0.80078 1.7089844,0.80078 1.0742187,0 1.6992187,-0.80078 0.6298832,-0.80078 0.6298832,-2.17773 0,-1.38184 -0.6298832,-2.18262 -0.625,-0.80078 -1.6992187,-0.80078 z m 0,-0.80078 q 1.5332031,0 2.4511719,1.03027 0.917969,1.02539 0.917969,2.75391 0,1.72363 -0.917969,2.7539 -0.9179688,1.02539 -2.4511719,1.02539 -1.538086,0 -2.4609375,-1.02539 -0.9179688,-1.02539 -0.9179688,-2.7539 0,-1.72852 0.9179688,-2.75391 0.9228515,-1.03027 2.4609375,-1.03027 z"
           style=""
           id="path4293" />
        <path
           d="m 12.792969,929.91473 0.991211,0 0,4.42871 q 0,1.17188 0.424804,1.68946 0.424805,0.51269 1.376954,0.51269 0.947265,0 1.37207,-0.51269 0.424804,-0.51758 0.424804,-1.68946 l 0,-4.42871 0.991211,0 0,4.55079 q 0,1.42578 -0.708007,2.15332 -0.703125,0.72753 -2.080078,0.72753 -1.381836,0 -2.089844,-0.72753 -0.703125,-0.72754 -0.703125,-2.15332 l 0,-4.55079 z"
           style=""
           id="path4295" />
        <path
           d="m 19.21875,929.91473 6.166992,0 0,0.83008 -2.58789,0 0,6.45996 -0.991211,0 0,-6.45996 -2.587891,0 0,-0.83008 z"
           style=""
           id="path4297" />
      </g>
    </g>
  </g>
</svg>
