<?xml version="1.0" encoding="UTF-8" standalone="no"?>
<!-- Created with Inkscape (http://www.inkscape.org/) -->

<svg
   xmlns:dc="http://purl.org/dc/elements/1.1/"
   xmlns:cc="http://creativecommons.org/ns#"
   xmlns:rdf="http://www.w3.org/1999/02/22-rdf-syntax-ns#"
   xmlns:svg="http://www.w3.org/2000/svg"
   xmlns="http://www.w3.org/2000/svg"
   xmlns:sodipodi="http://sodipodi.sourceforge.net/DTD/sodipodi-0.dtd"
   xmlns:inkscape="http://www.inkscape.org/namespaces/inkscape"
   width="60"
   height="380"
   viewBox="0 0 60 380.00001"
   id="svg2"
   version="1.1"
   inkscape:version="0.91 r13725"
   sodipodi:docname="WaveFolder.svg">
  <defs
     id="defs4" />
  <sodipodi:namedview
     id="base"
     pagecolor="#ffffff"
     bordercolor="#666666"
     borderopacity="1.0"
     inkscape:pageopacity="0.0"
     inkscape:pageshadow="2"
     inkscape:zoom="1.979899"
     inkscape:cx="-264.98334"
     inkscape:cy="177.14286"
     inkscape:document-units="px"
     inkscape:current-layer="layer1"
     showgrid="false"
     units="px"
     inkscape:window-width="1920"
     inkscape:window-height="1058"
     inkscape:window-x="0"
     inkscape:window-y="0"
     inkscape:window-maximized="1" />
  <metadata
     id="metadata7">
    <rdf:RDF>
      <cc:Work
         rdf:about="">
        <dc:format>image/svg+xml</dc:format>
        <dc:type
           rdf:resource="http://purl.org/dc/dcmitype/StillImage" />
        <dc:title />
      </cc:Work>
    </rdf:RDF>
  </metadata>
  <g
     inkscape:groupmode="layer"
     id="layer2"
     inkscape:label="bg">
    <rect
       style="opacity:1;fill:#e6e6e6;fill-opacity:1;fill-rule:nonzero;stroke:#0000ff;stroke-width:0.35433075;stroke-miterlimit:4;stroke-dasharray:none;stroke-opacity:1"
       id="rect4300"
       width="60.60915"
       height="380.32245"
       x="0"
       y="0.18264274" />
  </g>
  <g
     inkscape:label="Layer 1"
     inkscape:groupmode="layer"
     id="layer1"
     transform="translate(0,-672.36216)">
    <g
       style="font-style:normal;font-variant:normal;font-weight:normal;font-stretch:normal;font-size:10px;line-height:135.00000238%;font-family:'Hiragino Sans';-inkscape-font-specification:'Hiragino Sans, Normal';text-align:start;letter-spacing:0px;word-spacing:0px;writing-mode:lr-tb;text-anchor:start;fill:#000000;fill-opacity:1;stroke:none;stroke-width:1px;stroke-linecap:butt;stroke-linejoin:miter;stroke-opacity:1"
       id="text4136"
       transform="translate(15,335.87572)">
      <path
         d="m 7.8322655,692.55306 c -0.02,0.23 -0.11,0.61 -0.22,0.99 l -1.29,4.29 c -0.05,0.15 -0.21,0.83 -0.28,1.2 -0.1,-0.52 -0.21,-1.04 -0.26,-1.23 l -1.11,-4.2 c -0.11,-0.41 -0.17,-0.74 -0.19,-1.05 l -1.18,0 c 0.15,0.33 0.24,0.59 0.4,1.15 l 1.59,5.55 c 0.23,0.8 0.23,0.8 0.27,1.01 l 0.93,0 c 0.04,-0.25 0.1,-0.47 0.25,-0.98 l 1.24,-4.15 c 0.08,-0.27 0.19,-0.69 0.3,-1.19 0.08,0.42 0.17,0.79 0.29,1.19 l 1.25,4.15 c 0.11,0.34 0.2200005,0.78 0.2500005,0.98 l 0.94,0 c 0.04,-0.21 0.04,-0.21 0.26,-1.01 l 1.59,-5.55 c 0.16,-0.57 0.24,-0.8 0.39,-1.15 l -1.17,0 c -0.01,0.28 -0.08,0.66 -0.18,1.05 l -1.11,4.19 c -0.03,0.1 -0.12,0.51 -0.26,1.24 -0.17,-0.75 -0.25,-1.09 -0.3,-1.26 l -1.2800005,-4.23 c -0.11,-0.38 -0.19,-0.72 -0.23,-0.99 l -0.89,0 z"
         style="font-style:normal;font-variant:normal;font-weight:normal;font-stretch:normal;font-size:10px;line-height:135.00000238%;font-family:'Hiragino Sans';-inkscape-font-specification:'Hiragino Sans, Normal';text-align:start;writing-mode:lr-tb;text-anchor:start"
         id="path4261"
         inkscape:connector-curvature="0" />
      <path
         d="m 17.167109,693.39306 1.46,0 c 0.61,0 0.93,0.02 1.27,0.07 l 0,-0.98 c -0.33,0.05 -0.63,0.07 -1.27,0.07 l -3.91,0 c -0.55,0 -0.81,-0.02 -1.2,-0.07 l 0,0.98 c 0.33,-0.05 0.68,-0.07 1.21,-0.07 l 1.5,0 0,5.69 c 0,0.5 -0.03,0.88 -0.08,1.18 l 1.1,0 c -0.06,-0.37 -0.08,-0.68 -0.08,-1.18 l 0,-5.69 z"
         style="font-style:normal;font-variant:normal;font-weight:normal;font-stretch:normal;font-size:10px;line-height:135.00000238%;font-family:'Hiragino Sans';-inkscape-font-specification:'Hiragino Sans, Normal';text-align:start;writing-mode:lr-tb;text-anchor:start"
         id="path4263"
         inkscape:connector-curvature="0" />
      <path
         d="m 21.927734,692.55306 c -0.59,0 -0.85,-0.01 -1.14,-0.02 0.06,0.37 0.08,0.67 0.08,1.11 l 0,5.38 c 0,0.6 -0.02,0.85 -0.09,1.26 0.37,-0.02 0.65,-0.02 1.15,-0.02 l 2.31,0 c 1.57,0 2.46,-0.77 2.46,-2.13 0,-0.64 -0.21,-1.15 -0.61,-1.51 -0.27,-0.24 -0.5,-0.34 -0.98,-0.43 0.4,-0.13 0.57,-0.22 0.78,-0.41 0.36,-0.33 0.54,-0.77 0.54,-1.35 0,-1.21 -0.83,-1.88 -2.3,-1.88 l -2.2,0 z m -0.13,3.26 0,-2.45 2.27,0 c 0.93,0 1.41,0.4 1.41,1.17 0,0.82 -0.51,1.28 -1.4,1.28 l -2.28,0 z m 0,0.8 2.31,0 c 1.07,0 1.62,0.49 1.62,1.43 0,0.92 -0.56,1.41 -1.59,1.41 l -2.34,0 0,-2.84 z"
         style="font-style:normal;font-variant:normal;font-weight:normal;font-stretch:normal;font-size:10px;line-height:135.00000238%;font-family:'Hiragino Sans';-inkscape-font-specification:'Hiragino Sans, Normal';text-align:start;writing-mode:lr-tb;text-anchor:start"
         id="path4265"
         inkscape:connector-curvature="0" />
    </g>
    <g
       style="font-style:normal;font-variant:normal;font-weight:normal;font-stretch:normal;font-size:6.00000048px;line-height:135.00000238%;font-family:'Hiragino Sans';-inkscape-font-specification:'Hiragino Sans, Normal';text-align:start;letter-spacing:0px;word-spacing:0px;writing-mode:lr-tb;text-anchor:start;fill:#000000;fill-opacity:1;stroke:none;stroke-width:1px;stroke-linecap:butt;stroke-linejoin:miter;stroke-opacity:1"
       id="text4148"
       transform="translate(15,-332.34019)">
      <g
         style="font-style:normal;font-variant:normal;font-weight:normal;font-stretch:normal;font-size:6px;line-height:135.00000238%;font-family:'Charcoal CY';-inkscape-font-specification:'Charcoal CY';text-align:start;letter-spacing:0px;word-spacing:0px;writing-mode:lr-tb;text-anchor:start;fill:#000000;fill-opacity:1;stroke:none;stroke-width:1px;stroke-linecap:butt;stroke-linejoin:miter;stroke-opacity:1"
         id="text4253">
        <path
           d="m -5.2162503,1024.3104 c -0.015,0.1725 -0.0825,0.4575 -0.165,0.7425 l -0.9675,3.2175 c -0.0375,0.1125 -0.1575,0.6225 -0.21,0.9 -0.075,-0.39 -0.1575,-0.78 -0.195,-0.9225 l -0.8325,-3.15 c -0.0825,-0.3075 -0.1275,-0.555 -0.1425,-0.7875 l -0.885,0 c 0.1125,0.2475 0.18,0.4425 0.3,0.8625 l 1.1925,4.1625 c 0.1725,0.6 0.1725,0.6 0.2025,0.7575 l 0.6975,0 c 0.03,-0.1875 0.075,-0.3525 0.1875,-0.735 l 0.93,-3.1125 c 0.06,-0.2025 0.1425,-0.5175 0.225,-0.8925 0.06,0.315 0.1275,0.5925 0.2175,0.8925 l 0.9375,3.1125 c 0.0825,0.255 0.165,0.585 0.1875,0.735 l 0.705,0 c 0.03,-0.1575 0.03,-0.1575 0.195,-0.7575 l 1.1925,-4.1625 c 0.12,-0.4275 0.18,-0.6 0.2925,-0.8625 l -0.8775,0 c -0.0075,0.21 -0.06,0.495 -0.135,0.7875 l -0.8325,3.1425 c -0.0225,0.075 -0.09,0.3825 -0.195,0.93 -0.1275,-0.5625 -0.1875,-0.8175 -0.225,-0.945 l -0.96,-3.1725 c -0.0825,-0.285 -0.1425,-0.54 -0.1725,-0.7425 l -0.6675,0 z"
           style="font-style:normal;font-variant:normal;font-weight:normal;font-stretch:normal;font-size:7.5px;line-height:135.00000238%;font-family:'Hiragino Sans';-inkscape-font-specification:'Hiragino Sans, Normal';text-align:start;writing-mode:lr-tb;text-anchor:start"
           id="path6098" />
        <path
           d="m 2.1898825,1030.0929 0.7125,0 c -0.045,-0.315 -0.06,-0.495 -0.06,-0.8625 l 0,-2.085 c 0,-0.4125 -0.0975,-0.6975 -0.3225,-0.9075 -0.27,-0.2625 -0.6825,-0.39 -1.2525,-0.39 -0.57749999,0 -1.03499999,0.135 -1.36499999,0.4125 -0.2175,0.1725 -0.33,0.345 -0.465,0.72 l 0.6975,0.135 c 0.0675,-0.2025 0.12,-0.3 0.2175,-0.405 0.2025,-0.21 0.5025,-0.315 0.90749999,-0.315 0.6375,0 0.93,0.24 0.93,0.75 l 0,0.39 c -0.975,0.023 -1.38749999,0.075 -1.83749999,0.2175 -0.645,0.21 -1.0125,0.66 -1.0125,1.2375 0,0.7275 0.5175,1.17 1.3575,1.17 0.2925,0 0.56999999,-0.045 0.82499999,-0.1425 0.2475,-0.09 0.3825,-0.18 0.6675,-0.4275 l 0,0.5025 z m 0,-1.5975 c 0,0.2775 -0.0675,0.4575 -0.2475,0.645 -0.2925,0.3 -0.7425,0.4875 -1.15499999,0.4875 -0.4725,0 -0.765,-0.2475 -0.765,-0.6375 0,-0.345 0.1875,-0.585 0.5625,-0.735 0.33,-0.135 0.74999999,-0.1875 1.60499999,-0.21 l 0,0.45 z"
           style="font-style:normal;font-variant:normal;font-weight:normal;font-stretch:normal;font-size:7.5px;line-height:135.00000238%;font-family:'Hiragino Sans';-inkscape-font-specification:'Hiragino Sans, Normal';text-align:start;writing-mode:lr-tb;text-anchor:start"
           id="path6100" />
        <path
           d="m 3.4483591,1025.9679 c 0.1725,0.36 0.2475,0.525 0.3675,0.8175 l 1.0725,2.6175 c 0.15,0.3675 0.195,0.5025 0.24,0.69 l 0.735,0 c 0.045,-0.2175 0.0675,-0.2775 0.2325,-0.69 l 1.08,-2.6175 c 0.21,-0.525 0.2625,-0.6375 0.36,-0.8175 l -0.8325,0 c -0.03,0.21 -0.0825,0.375 -0.2175,0.7275 l -0.825,2.1975 c -0.06,0.165 -0.1125,0.315 -0.165,0.495 -0.0525,-0.1575 -0.1275,-0.39 -0.1725,-0.495 l -0.825,-2.1975 c -0.1125,-0.285 -0.1875,-0.54 -0.2175,-0.7275 l -0.8325,0 z"
           style="font-style:normal;font-variant:normal;font-weight:normal;font-stretch:normal;font-size:7.5px;line-height:135.00000238%;font-family:'Hiragino Sans';-inkscape-font-specification:'Hiragino Sans, Normal';text-align:start;writing-mode:lr-tb;text-anchor:start"
           id="path6102" />
        <path
           d="m 11.784961,1028.1579 c -0.0225,-0.375 -0.0375,-0.5325 -0.0525,-0.6075 -0.15,-1.05 -0.8625,-1.6875 -1.8750004,-1.6875 -1.17,0 -1.935,0.855 -1.935,2.1675 0,1.335 0.7725,2.175 1.9875,2.175 0.5775004,0 1.0575004,-0.1875 1.4175004,-0.5475 0.18,-0.1725 0.2775,-0.3225 0.42,-0.6375 l -0.63,-0.2325 c -0.075,0.2175 -0.1275,0.315 -0.24,0.435 -0.2325,0.27 -0.5625,0.4125 -0.9600004,0.4125 -0.435,0 -0.7875,-0.165 -1.02,-0.48 -0.195,-0.2625 -0.27,-0.51 -0.3,-0.9975 l 3.1875004,0 z m -3.1650004,-0.5475 c 0.045,-0.27 0.0825,-0.39 0.1875,-0.57 0.225,-0.3975 0.5925,-0.615 1.035,-0.615 0.3525004,0 0.6375004,0.105 0.8625004,0.3225 0.2175,0.2175 0.33,0.4725 0.375,0.8625 l -2.4600004,0 z"
           style="font-style:normal;font-variant:normal;font-weight:normal;font-stretch:normal;font-size:7.5px;line-height:135.00000238%;font-family:'Hiragino Sans';-inkscape-font-specification:'Hiragino Sans, Normal';text-align:start;writing-mode:lr-tb;text-anchor:start"
           id="path6104" />
        <path
           d="m 15.951211,1027.4154 1.7175,0 c 0.4125,0 0.645,0.015 0.9,0.053 l 0,-0.735 c -0.2775,0.038 -0.5025,0.053 -0.9,0.053 l -1.7175,0 0,-1.8375 2.1225,0 c 0.4125,0 0.645,0.015 0.9,0.053 l 0,-0.7425 c -0.285,0.037 -0.5175,0.053 -0.9075,0.053 l -2.025,0 c -0.3675,0 -0.6,-0.01 -0.855,-0.023 0.045,0.3 0.06,0.54 0.06,0.885 l 0,3.99 c 0,0.4275 -0.015,0.675 -0.06,0.93 l 0.825,0 c -0.045,-0.2775 -0.06,-0.5025 -0.06,-0.9375 l 0,-1.74 z"
           style="font-style:normal;font-variant:normal;font-weight:normal;font-stretch:normal;font-size:7.5px;line-height:135.00000238%;font-family:'Hiragino Sans';-inkscape-font-specification:'Hiragino Sans, Normal';text-align:start;writing-mode:lr-tb;text-anchor:start"
           id="path6106" />
        <path
           d="m 21.63082,1030.1979 c 1.2375,0 2.0475,-0.855 2.0475,-2.175 0,-1.32 -0.8025,-2.16 -2.0625,-2.16 -1.26,0 -2.0625,0.8475 -2.0625,2.1675 0,1.3275 0.8025,2.1675 2.0775,2.1675 z m 0,-3.7725 c 0.84,0 1.3575,0.615 1.3575,1.6125 0,0.99 -0.5175,1.59 -1.3725,1.59 -0.8475,0 -1.3725,-0.615 -1.3725,-1.605 0,-0.99 0.5325,-1.5975 1.3875,-1.5975 z"
           style="font-style:normal;font-variant:normal;font-weight:normal;font-stretch:normal;font-size:7.5px;line-height:135.00000238%;font-family:'Hiragino Sans';-inkscape-font-specification:'Hiragino Sans, Normal';text-align:start;writing-mode:lr-tb;text-anchor:start"
           id="path6108" />
        <path
           d="m 24.545508,1024.3104 c 0.0375,0.27 0.0525,0.4875 0.0525,0.885 l 0,4.0125 c 0,0.3825 -0.015,0.5925 -0.0525,0.885 l 0.795,0 c -0.0375,-0.3075 -0.0525,-0.525 -0.0525,-0.885 l 0,-4.0125 c 0,-0.39 0.015,-0.6075 0.0525,-0.885 l -0.795,0 z"
           style="font-style:normal;font-variant:normal;font-weight:normal;font-stretch:normal;font-size:7.5px;line-height:135.00000238%;font-family:'Hiragino Sans';-inkscape-font-specification:'Hiragino Sans, Normal';text-align:start;writing-mode:lr-tb;text-anchor:start"
           id="path6110" />
        <path
           d="m 29.579414,1030.0929 0.72,0 c -0.0375,-0.2925 -0.0525,-0.5175 -0.0525,-0.9075 l 0,-3.9825 c 0,-0.345 0.015,-0.5775 0.0525,-0.8925 l -0.7725,0 c 0.0375,0.285 0.0525,0.525 0.0525,0.8925 l 0,0.9075 c 0,0.12 0,0.24 0.0075,0.2925 0.0075,0.1275 0.0075,0.1275 0.015,0.21 -0.3375,-0.48 -0.8625,-0.735 -1.53,-0.735 -1.1625,0 -1.8975,0.8325 -1.8975,2.145 0,0.6975 0.21,1.2825 0.6,1.6725 0.3225,0.315 0.765,0.4725 1.3125,0.4725 0.6675,0 1.1325,-0.225 1.515,-0.735 -0.0075,0.098 -0.0225,0.2325 -0.0225,0.3225 l 0,0.3375 z m -1.425,-3.63 c 0.3975,0 0.7575,0.1425 1.02,0.405 0.255,0.2475 0.3975,0.66 0.3975,1.1325 0,0.96 -0.555,1.59 -1.41,1.59 -0.315,0 -0.6075,-0.098 -0.825,-0.285 -0.2925,-0.255 -0.4575,-0.7125 -0.4575,-1.305 0,-0.9525 0.48,-1.5375 1.275,-1.5375 z"
           style="font-style:normal;font-variant:normal;font-weight:normal;font-stretch:normal;font-size:7.5px;line-height:135.00000238%;font-family:'Hiragino Sans';-inkscape-font-specification:'Hiragino Sans, Normal';text-align:start;writing-mode:lr-tb;text-anchor:start"
           id="path6112" />
        <path
           d="m 35.017383,1028.1579 c -0.0225,-0.375 -0.0375,-0.5325 -0.0525,-0.6075 -0.15,-1.05 -0.8625,-1.6875 -1.875,-1.6875 -1.17,0 -1.935,0.855 -1.935,2.1675 0,1.335 0.7725,2.175 1.9875,2.175 0.5775,0 1.0575,-0.1875 1.4175,-0.5475 0.18,-0.1725 0.2775,-0.3225 0.42,-0.6375 l -0.63,-0.2325 c -0.075,0.2175 -0.1275,0.315 -0.24,0.435 -0.2325,0.27 -0.5625,0.4125 -0.96,0.4125 -0.435,0 -0.7875,-0.165 -1.02,-0.48 -0.195,-0.2625 -0.27,-0.51 -0.3,-0.9975 l 3.1875,0 z m -3.165,-0.5475 c 0.045,-0.27 0.0825,-0.39 0.1875,-0.57 0.225,-0.3975 0.5925,-0.615 1.035,-0.615 0.3525,0 0.6375,0.105 0.8625,0.3225 0.2175,0.2175 0.33,0.4725 0.375,0.8625 l -2.46,0 z"
           style="font-style:normal;font-variant:normal;font-weight:normal;font-stretch:normal;font-size:7.5px;line-height:135.00000238%;font-family:'Hiragino Sans';-inkscape-font-specification:'Hiragino Sans, Normal';text-align:start;writing-mode:lr-tb;text-anchor:start"
           id="path6114" />
        <path
           d="m 38.61375,1025.9679 c -0.3075,-0.053 -0.4575,-0.068 -0.69,-0.068 -0.39,0 -0.735,0.105 -0.99,0.3075 -0.1275,0.09 -0.2175,0.2025 -0.345,0.3975 0.0075,-0.06 0.0075,-0.075 0.015,-0.1275 0,-0.023 0,-0.038 0,-0.053 0,-0.038 0,-0.06 0,-0.068 l 0,-0.39 -0.735,0 c 0.0375,0.2775 0.0525,0.4875 0.0525,0.885 l 0,2.355 c 0,0.3375 -0.0075,0.5175 -0.0525,0.885 l 0.7875,0 c -0.0375,-0.3075 -0.0525,-0.525 -0.0525,-0.885 l 0,-1.485 c 0.0375,-0.345 0.105,-0.525 0.285,-0.7575 0.225,-0.285 0.525,-0.4275 0.915,-0.4275 0.195,0 0.3375,0.023 0.615,0.1125 l 0.195,-0.6825 z"
           style="font-style:normal;font-variant:normal;font-weight:normal;font-stretch:normal;font-size:7.5px;line-height:135.00000238%;font-family:'Hiragino Sans';-inkscape-font-specification:'Hiragino Sans, Normal';text-align:start;writing-mode:lr-tb;text-anchor:start"
           id="path6116" />
      </g>
    </g>
    <g
       id="text4156"
       style="font-style:normal;font-variant:normal;font-weight:normal;font-stretch:normal;font-size:10px;line-height:135.00000238%;font-family:'Charcoal CY';-inkscape-font-specification:'Charcoal CY, Normal';text-align:start;letter-spacing:0px;word-spacing:0px;writing-mode:lr-tb;text-anchor:start;fill:#000000;fill-opacity:1;stroke:none;stroke-width:1px;stroke-linecap:butt;stroke-linejoin:miter;stroke-opacity:1"
       transform="translate(15,41.984108)">
      <path
         inkscape:connector-curvature="0"
         id="path4288"
         d="m 10.766602,836.73303 0.986328,0 0,7.29004 -0.986328,0 0,-7.29004 z" />
      <path
         inkscape:connector-curvature="0"
         id="path4290"
         d="m 13.71582,836.73303 1.328125,0 3.232422,6.09864 0,-6.09864 0.957031,0 0,7.29004 -1.328125,0 -3.232421,-6.09863 0,6.09863 -0.957032,0 0,-7.29004 z" />
    </g>
    <g
       id="text4160"
       style="font-style:normal;font-variant:normal;font-weight:normal;font-stretch:normal;font-size:10px;line-height:135.00000238%;font-family:'Charcoal CY';-inkscape-font-specification:'Charcoal CY, Normal';text-align:start;letter-spacing:0px;word-spacing:0px;writing-mode:lr-tb;text-anchor:start;fill:#000000;fill-opacity:1;stroke:none;stroke-width:1px;stroke-linecap:butt;stroke-linejoin:miter;stroke-opacity:1"
       transform="translate(15,21.984108)">
      <path
         inkscape:connector-curvature="0"
         id="path4293"
         d="m 7.9931641,930.58368 q -1.0742188,0 -1.7089844,0.80078 -0.6298828,0.80078 -0.6298828,2.18262 0,1.37695 0.6298828,2.17773 0.6347656,0.80078 1.7089844,0.80078 1.0742187,0 1.6992187,-0.80078 0.6298832,-0.80078 0.6298832,-2.17773 0,-1.38184 -0.6298832,-2.18262 -0.625,-0.80078 -1.6992187,-0.80078 z m 0,-0.80078 q 1.5332031,0 2.4511719,1.03027 0.917969,1.02539 0.917969,2.75391 0,1.72363 -0.917969,2.7539 -0.9179688,1.02539 -2.4511719,1.02539 -1.538086,0 -2.4609375,-1.02539 -0.9179688,-1.02539 -0.9179688,-2.7539 0,-1.72852 0.9179688,-2.75391 0.9228515,-1.03027 2.4609375,-1.03027 z" />
      <path
         inkscape:connector-curvature="0"
         id="path4295"
         d="m 12.792969,929.91473 0.991211,0 0,4.42871 q 0,1.17188 0.424804,1.68946 0.424805,0.51269 1.376954,0.51269 0.947265,0 1.37207,-0.51269 0.424804,-0.51758 0.424804,-1.68946 l 0,-4.42871 0.991211,0 0,4.55079 q 0,1.42578 -0.708007,2.15332 -0.703125,0.72753 -2.080078,0.72753 -1.381836,0 -2.089844,-0.72753 -0.703125,-0.72754 -0.703125,-2.15332 l 0,-4.55079 z" />
      <path
         inkscape:connector-curvature="0"
         id="path4297"
         d="m 19.21875,929.91473 6.166992,0 0,0.83008 -2.58789,0 0,6.45996 -0.991211,0 0,-6.45996 -2.587891,0 0,-0.83008 z" />
    </g>
    <flowRoot
       xml:space="preserve"
       id="flowRoot6140"
       style="fill:black;stroke:none;stroke-opacity:1;stroke-width:1px;stroke-linejoin:miter;stroke-linecap:butt;fill-opacity:1;font-family:Charcoal CY;font-style:normal;font-weight:normal;font-size:6px;line-height:135.00000238%;letter-spacing:0px;word-spacing:0px;-inkscape-font-specification:Charcoal CY;font-stretch:normal;font-variant:normal;text-anchor:start;text-align:start;writing-mode:lr"><flowRegion
         id="flowRegion6142"><rect
           id="rect6144"
           width="10.606602"
           height="8.0812206"
           x="17.172594"
           y="49.680119" /></flowRegion><flowPara
         id="flowPara6146"></flowPara></flowRoot>    <flowRoot
       xml:space="preserve"
       id="flowRoot6159"
       style="fill:black;stroke:none;stroke-opacity:1;stroke-width:1px;stroke-linejoin:miter;stroke-linecap:butt;fill-opacity:1;font-family:Charcoal CY;font-style:normal;font-weight:normal;font-size:6px;line-height:135.00000238%;letter-spacing:0px;word-spacing:0px;-inkscape-font-specification:Charcoal CY;font-stretch:normal;font-variant:normal;text-anchor:start;text-align:start;writing-mode:lr"><flowRegion
         id="flowRegion6161"><rect
           id="rect6163"
           width="38.890873"
           height="21.718279"
           x="13.637059"
           y="50.185196" /></flowRegion><flowPara
         id="flowPara6165"></flowPara></flowRoot>    <g
       style="font-style:normal;font-variant:normal;font-weight:normal;font-stretch:normal;font-size:6px;line-height:135.00000238%;font-family:'Charcoal CY';-inkscape-font-specification:'Charcoal CY';text-align:start;letter-spacing:0px;word-spacing:0px;writing-mode:lr-tb;text-anchor:start;fill:#000000;fill-opacity:1;stroke:none;stroke-width:1px;stroke-linecap:butt;stroke-linejoin:miter;stroke-opacity:1"
       id="text6167">
      <path
         d="m 11.247559,726.49719 -1.337891,3.62793 2.680664,0 -1.342773,-3.62793 z m -0.556641,-0.97168 1.118164,0 2.77832,7.29004 -1.02539,0 -0.664063,-1.87012 -3.2861326,0 -0.6640625,1.87012 -1.0400391,0 2.7832032,-7.29004 z"
         style="font-style:normal;font-variant:normal;font-weight:normal;font-stretch:normal;font-size:10px;line-height:135.00000238%;font-family:'Charcoal CY';-inkscape-font-specification:'Charcoal CY, Normal';text-align:start;writing-mode:lr-tb;text-anchor:start"
         id="path6195" />
      <path
         d="m 15.646973,725.52551 1.469726,0 1.860352,4.96094 1.870117,-4.96094 1.469727,0 0,7.29004 -0.961915,0 0,-6.40137 -1.879882,5 -0.991211,0 -1.879883,-5 0,6.40137 -0.957031,0 0,-7.29004 z"
         style="font-style:normal;font-variant:normal;font-weight:normal;font-stretch:normal;font-size:10px;line-height:135.00000238%;font-family:'Charcoal CY';-inkscape-font-specification:'Charcoal CY, Normal';text-align:start;writing-mode:lr-tb;text-anchor:start"
         id="path6197" />
      <path
         d="m 27.219238,726.19446 q -1.074218,0 -1.708984,0.80078 -0.629883,0.80078 -0.629883,2.18262 0,1.37695 0.629883,2.17773 0.634766,0.80078 1.708984,0.80078 1.074219,0 1.699219,-0.80078 0.629883,-0.80078 0.629883,-2.17773 0,-1.38184 -0.629883,-2.18262 -0.625,-0.80078 -1.699219,-0.80078 z m 0,-0.80078 q 1.533203,0 2.451172,1.03027 0.917969,1.02539 0.917969,2.75391 0,1.72363 -0.917969,2.7539 -0.917969,1.02539 -2.451172,1.02539 -1.538086,0 -2.460937,-1.02539 -0.917969,-1.02539 -0.917969,-2.7539 0,-1.72852 0.917969,-2.75391 0.922851,-1.03027 2.460937,-1.03027 z"
         style="font-style:normal;font-variant:normal;font-weight:normal;font-stretch:normal;font-size:10px;line-height:135.00000238%;font-family:'Charcoal CY';-inkscape-font-specification:'Charcoal CY, Normal';text-align:start;writing-mode:lr-tb;text-anchor:start"
         id="path6199" />
      <path
         d="m 32.019043,725.52551 0.991211,0 0,4.42871 q 0,1.17188 0.424805,1.68946 0.424804,0.51269 1.376953,0.51269 0.947265,0 1.37207,-0.51269 0.424805,-0.51758 0.424805,-1.68946 l 0,-4.42871 0.991211,0 0,4.55078 q 0,1.42579 -0.708008,2.15332 -0.703125,0.72754 -2.080078,0.72754 -1.381836,0 -2.089844,-0.72754 -0.703125,-0.72753 -0.703125,-2.15332 l 0,-4.55078 z"
         style="font-style:normal;font-variant:normal;font-weight:normal;font-stretch:normal;font-size:10px;line-height:135.00000238%;font-family:'Charcoal CY';-inkscape-font-specification:'Charcoal CY, Normal';text-align:start;writing-mode:lr-tb;text-anchor:start"
         id="path6201" />
      <path
         d="m 39.455566,725.52551 1.328125,0 3.232422,6.09864 0,-6.09864 0.957032,0 0,7.29004 -1.328125,0 -3.232422,-6.09863 0,6.09863 -0.957032,0 0,-7.29004 z"
         style="font-style:normal;font-variant:normal;font-weight:normal;font-stretch:normal;font-size:10px;line-height:135.00000238%;font-family:'Charcoal CY';-inkscape-font-specification:'Charcoal CY, Normal';text-align:start;writing-mode:lr-tb;text-anchor:start"
         id="path6203" />
      <path
         d="m 45.925293,725.52551 6.166992,0 0,0.83008 -2.58789,0 0,6.45996 -0.991211,0 0,-6.45996 -2.587891,0 0,-0.83008 z"
         style="font-style:normal;font-variant:normal;font-weight:normal;font-stretch:normal;font-size:10px;line-height:135.00000238%;font-family:'Charcoal CY';-inkscape-font-specification:'Charcoal CY, Normal';text-align:start;writing-mode:lr-tb;text-anchor:start"
         id="path6205" />
    </g>
    <g
       style="font-style:normal;font-variant:normal;font-weight:normal;font-stretch:normal;font-size:6px;line-height:135.00000238%;font-family:'Charcoal CY';-inkscape-font-specification:'Charcoal CY';text-align:start;letter-spacing:0px;word-spacing:0px;writing-mode:lr-tb;text-anchor:start;fill:#000000;fill-opacity:1;stroke:none;stroke-width:1px;stroke-linecap:butt;stroke-linejoin:miter;stroke-opacity:1"
       id="text6179">
      <path
         d="m 16.413593,812.81714 c -0.15,-0.26 -0.28,-0.55 -0.53,-1.16 l -2.24,-5.6 c -0.24,-0.6 -0.29,-0.75 -0.34,-0.95 l -1.22,0 c -0.05,0.24 -0.13,0.47 -0.32,0.95 l -2.2299997,5.6 c -0.24,0.6 -0.35,0.84 -0.53,1.16 l 1.2099997,0 c 0.07,-0.36 0.15,-0.62 0.31,-1.03 l 0.48,-1.24 3.41,0 0.49,1.24 c 0.11,0.3 0.23,0.69 0.3,1.03 l 1.21,0 z m -2.28,-3.09 -2.85,0 1.21,-3.2 c 0.02,-0.05 0.05,-0.15 0.1,-0.29 0.02,-0.07 0.06,-0.19 0.11,-0.33 0.18,0.53 0.18,0.53 0.21,0.62 l 1.22,3.2 z"
         style="font-style:normal;font-variant:normal;font-weight:normal;font-stretch:normal;font-size:10px;line-height:135.00000238%;font-family:'Hiragino Sans';-inkscape-font-specification:'Hiragino Sans, Normal';text-align:start;writing-mode:lr-tb;text-anchor:start"
         id="path6184" />
      <path
         d="m 24.369843,811.55714 c 0,0.51 -0.03,0.93 -0.08,1.26 l 1.05,0 c -0.06,-0.36 -0.08,-0.66 -0.08,-1.26 l 0,-5.18 c 0,-0.57 0.02,-0.86 0.08,-1.27 l -1.35,0 c -0.06,0.33 -0.16,0.63 -0.34,1.05 l -2.34,5.35 -2.34,-5.35 c -0.15,-0.35 -0.27,-0.73 -0.34,-1.05 l -1.35,0 c 0.06,0.38 0.08,0.73 0.08,1.27 l 0,5.18 c 0,0.57 -0.02,0.88 -0.08,1.26 l 1.05,0 c -0.06,-0.35 -0.08,-0.69 -0.08,-1.26 l 0,-3.52 c 0,-0.3 -0.03,-1.12 -0.07,-1.85 0.29,0.9 0.37,1.11 0.66,1.76 l 1.65,3.74 c 0.21,0.45 0.34,0.84 0.39,1.13 l 0.84,0 c 0.1,-0.39 0.19,-0.66 0.4,-1.12 l 1.7,-3.81 c 0.34,-0.77 0.46,-1.08 0.62,-1.69 -0.03,0.45 -0.07,1.41 -0.07,1.77 l 0,3.59 z"
         style="font-style:normal;font-variant:normal;font-weight:normal;font-stretch:normal;font-size:10px;line-height:135.00000238%;font-family:'Hiragino Sans';-inkscape-font-specification:'Hiragino Sans, Normal';text-align:start;writing-mode:lr-tb;text-anchor:start"
         id="path6186" />
      <path
         d="m 29.899687,805.94714 1.46,0 c 0.61,0 0.93,0.02 1.27,0.07 l 0,-0.98 c -0.33,0.05 -0.63,0.07 -1.27,0.07 l -3.91,0 c -0.55,0 -0.81,-0.02 -1.2,-0.07 l 0,0.98 c 0.33,-0.05 0.68,-0.07 1.21,-0.07 l 1.5,0 0,5.69 c 0,0.5 -0.03,0.88 -0.08,1.18 l 1.1,0 c -0.06,-0.37 -0.08,-0.68 -0.08,-1.18 l 0,-5.69 z"
         style="font-style:normal;font-variant:normal;font-weight:normal;font-stretch:normal;font-size:10px;line-height:135.00000238%;font-family:'Hiragino Sans';-inkscape-font-specification:'Hiragino Sans, Normal';text-align:start;writing-mode:lr-tb;text-anchor:start"
         id="path6188" />
      <path
         d="m 43.200156,807.10714 c -0.24,-0.64 -0.43,-0.96 -0.81,-1.33 -0.57,-0.55 -1.33,-0.82 -2.29,-0.82 -0.96,0 -1.73,0.29 -2.32,0.86 -0.76,0.74 -1.18,1.85 -1.18,3.16 0,1.26 0.39,2.36 1.09,3.07 0.58,0.6 1.41,0.91 2.4,0.91 1.13,0 2.07,-0.41 2.63,-1.14 0.26,-0.34 0.4,-0.66 0.58,-1.28 l -1,-0.21 c -0.09,0.45 -0.18,0.69 -0.39,0.98 -0.38,0.52 -1.02,0.81 -1.79,0.81 -1.55,0 -2.54,-1.23 -2.54,-3.17 0,-1.94 0.97,-3.15 2.54,-3.15 0.69,0 1.27,0.24 1.65,0.69 0.21,0.25 0.32,0.45 0.46,0.88 l 0.97,-0.26 z"
         style="font-style:normal;font-variant:normal;font-weight:normal;font-stretch:normal;font-size:10px;line-height:135.00000238%;font-family:'Hiragino Sans';-inkscape-font-specification:'Hiragino Sans, Normal';text-align:start;writing-mode:lr-tb;text-anchor:start"
         id="path6190" />
      <path
         d="m 45.376406,806.13714 c -0.13,-0.36 -0.22,-0.71 -0.28,-1.03 l -1.21,0 c 0.12,0.21 0.29,0.6 0.51,1.17 l 2.14,5.58 c 0.19,0.51 0.27,0.74 0.32,0.96 l 1.18,0 c 0.05,-0.22 0.14,-0.51 0.31,-0.96 l 2.14,-5.58 c 0.25,-0.66 0.36,-0.91 0.51,-1.17 l -1.21,0 c -0.04,0.28 -0.11,0.54 -0.29,1.03 l -1.81,5.07 c -0.08,0.21 -0.12,0.33 -0.24,0.72 -0.11,-0.36 -0.19,-0.6 -0.23,-0.72 l -1.84,-5.07 z"
         style="font-style:normal;font-variant:normal;font-weight:normal;font-stretch:normal;font-size:10px;line-height:135.00000238%;font-family:'Hiragino Sans';-inkscape-font-specification:'Hiragino Sans, Normal';text-align:start;writing-mode:lr-tb;text-anchor:start"
         id="path6192" />
    </g>
  </g>
</svg>
